<?xml version="1.0" encoding="utf-8"?>
<!-- Generator: Adobe Illustrator 23.0.1, SVG Export Plug-In . SVG Version: 6.00 Build 0)  -->
<svg version="1.1" id="Layer_1" xmlns="http://www.w3.org/2000/svg" xmlns:xlink="http://www.w3.org/1999/xlink" x="0px" y="0px"
	 viewBox="0 0 88 36" style="enable-background:new 0 0 88 36;" xml:space="preserve">
<style type="text/css">
	.st0{fill:#F15B29;}
</style>
<path class="st0" d="M5.1,27.3c-0.8,0-1.5-0.2-1.9-0.7c-0.4-0.5-0.6-1.1-0.6-1.8V5H5v20.1h2.3v2.1H5.1z"/>
<path class="st0" d="M16.6,27.7c-1.1,0-2-0.2-2.9-0.6c-0.9-0.4-1.6-0.9-2.2-1.6c-0.6-0.7-1.1-1.6-1.4-2.6c-0.3-1-0.5-2.1-0.5-3.4
	c0-1.2,0.2-2.3,0.5-3.3c0.3-1,0.8-1.9,1.4-2.6c0.6-0.7,1.3-1.3,2.2-1.6c0.9-0.4,1.8-0.6,2.9-0.6c1,0,2,0.2,2.8,0.6s1.5,0.9,2.1,1.6
	c0.6,0.7,1,1.5,1.3,2.4c0.3,0.9,0.5,1.9,0.5,3v1.1H12.1v0.7c0,0.7,0.1,1.3,0.3,1.8s0.5,1.1,0.9,1.5c0.4,0.4,0.9,0.8,1.4,1
	c0.6,0.2,1.2,0.4,1.9,0.4c1,0,1.8-0.2,2.6-0.7c0.7-0.5,1.3-1.1,1.7-2l1.7,1.2c-0.5,1.1-1.3,1.9-2.3,2.6S18,27.7,16.6,27.7z
	 M16.6,13.4c-0.7,0-1.3,0.1-1.8,0.3c-0.5,0.2-1,0.6-1.4,1c-0.4,0.4-0.7,0.9-0.9,1.5c-0.2,0.6-0.3,1.2-0.3,1.9v0.2h8.6V18
	c0-1.4-0.4-2.5-1.1-3.3C18.8,13.9,17.8,13.4,16.6,13.4z"/>
<path class="st0" d="M33.1,27.7c-1.1,0-2-0.2-2.9-0.6c-0.9-0.4-1.6-0.9-2.2-1.6c-0.6-0.7-1.1-1.6-1.4-2.6c-0.3-1-0.5-2.1-0.5-3.4
	c0-1.2,0.2-2.3,0.5-3.3c0.3-1,0.8-1.9,1.4-2.6c0.6-0.7,1.3-1.3,2.2-1.6c0.9-0.4,1.8-0.6,2.9-0.6c1,0,2,0.2,2.8,0.6s1.5,0.9,2.1,1.6
	c0.6,0.7,1,1.5,1.3,2.4c0.3,0.9,0.5,1.9,0.5,3v1.1H28.6v0.7c0,0.7,0.1,1.3,0.3,1.8s0.5,1.1,0.9,1.5c0.4,0.4,0.9,0.8,1.4,1
	c0.6,0.2,1.2,0.4,1.9,0.4c1,0,1.8-0.2,2.6-0.7c0.7-0.5,1.3-1.1,1.7-2l1.7,1.2c-0.5,1.1-1.3,1.9-2.3,2.6S34.5,27.7,33.1,27.7z
	 M33.1,13.4c-0.7,0-1.3,0.1-1.8,0.3c-0.5,0.2-1,0.6-1.4,1c-0.4,0.4-0.7,0.9-0.9,1.5c-0.2,0.6-0.3,1.2-0.3,1.9v0.2h8.6V18
	c0-1.4-0.4-2.5-1.1-3.3C35.3,13.9,34.3,13.4,33.1,13.4z"/>
<path class="st0" d="M42,11.8h2.3l1.7,6.7l1.7,6.8h0.1l1.9-6.8l2-6.7h2.1l2,6.7l1.9,6.8h0.1l1.6-6.8l1.7-6.7h2.3l-4.1,15.5h-3
	l-2.2-7.5l-1.4-4.7h-0.1l-1.3,4.7L49,27.3h-2.9L42,11.8z"/>
<path class="st0" d="M72.4,27.7c-1.1,0-2-0.2-2.9-0.6c-0.9-0.4-1.6-0.9-2.2-1.6c-0.6-0.7-1.1-1.6-1.4-2.6c-0.3-1-0.5-2.1-0.5-3.4
	c0-1.2,0.2-2.3,0.5-3.3c0.3-1,0.8-1.9,1.4-2.6s1.3-1.3,2.2-1.6c0.9-0.4,1.8-0.6,2.9-0.6c1,0,2,0.2,2.8,0.6c0.8,0.4,1.5,0.9,2.1,1.6
	c0.6,0.7,1,1.5,1.3,2.4c0.3,0.9,0.5,1.9,0.5,3v1.1H67.9v0.7c0,0.7,0.1,1.3,0.3,1.8c0.2,0.6,0.5,1.1,0.9,1.5s0.9,0.8,1.4,1
	s1.2,0.4,1.9,0.4c1,0,1.8-0.2,2.6-0.7c0.7-0.5,1.3-1.1,1.7-2l1.7,1.2c-0.5,1.1-1.3,1.9-2.3,2.6C75.1,27.3,73.8,27.7,72.4,27.7z
	 M72.4,13.4c-0.7,0-1.3,0.1-1.8,0.3c-0.5,0.2-1,0.6-1.4,1c-0.4,0.4-0.7,0.9-0.9,1.5c-0.2,0.6-0.3,1.2-0.3,1.9v0.2h8.6V18
	c0-1.4-0.4-2.5-1.1-3.3C74.6,13.9,73.6,13.4,72.4,13.4z"/>
<path class="st0" d="M84.2,8.1c-0.5,0-0.9-0.1-1.1-0.4c-0.2-0.3-0.3-0.6-0.3-1V6.4c0-0.4,0.1-0.7,0.3-1C83.3,5.2,83.7,5,84.2,5
	s0.9,0.1,1.1,0.4c0.2,0.3,0.3,0.6,0.3,1v0.4c0,0.4-0.1,0.7-0.3,1C85.1,8,84.8,8.1,84.2,8.1z M83,11.8h2.4v15.5H83V11.8z"/>
</svg>
